<mxfile host="app.diagrams.net" agent="Mozilla/5.0 (Macintosh; Intel Mac OS X 10_15_7) AppleWebKit/537.36 (KHTML, like Gecko) Chrome/140.0.0.0 Safari/537.36" version="28.2.0">
  <diagram id="qFqKU3Nr6C4JSWhxGyRd" name="Page-1">
    <mxGraphModel dx="1010" dy="1372" grid="1" gridSize="10" guides="1" tooltips="1" connect="1" arrows="1" fold="1" page="1" pageScale="1" pageWidth="827" pageHeight="1169" math="0" shadow="0">
      <root>
        <mxCell id="0" />
        <mxCell id="1" parent="0" />
        <mxCell id="bmb84InzkfZ7Il1cUTI2-50" value="&lt;b&gt;Lieu&lt;/b&gt;" style="swimlane;fontStyle=0;childLayout=stackLayout;horizontal=1;startSize=26;fillColor=none;horizontalStack=0;resizeParent=1;resizeParentMax=0;resizeLast=0;collapsible=1;marginBottom=0;whiteSpace=wrap;html=1;" vertex="1" parent="1">
          <mxGeometry x="200" y="481" width="190" height="138" as="geometry" />
        </mxCell>
        <mxCell id="bmb84InzkfZ7Il1cUTI2-51" value="+ localisationDeLaScene: Texte" style="text;strokeColor=none;fillColor=none;align=left;verticalAlign=top;spacingLeft=4;spacingRight=4;overflow=hidden;rotatable=0;points=[[0,0.5],[1,0.5]];portConstraint=eastwest;whiteSpace=wrap;html=1;" vertex="1" parent="bmb84InzkfZ7Il1cUTI2-50">
          <mxGeometry y="26" width="190" height="26" as="geometry" />
        </mxCell>
        <mxCell id="bmb84InzkfZ7Il1cUTI2-52" value="+ codePostal: Numérique" style="text;strokeColor=none;fillColor=none;align=left;verticalAlign=top;spacingLeft=4;spacingRight=4;overflow=hidden;rotatable=0;points=[[0,0.5],[1,0.5]];portConstraint=eastwest;whiteSpace=wrap;html=1;" vertex="1" parent="bmb84InzkfZ7Il1cUTI2-50">
          <mxGeometry y="52" width="190" height="26" as="geometry" />
        </mxCell>
        <mxCell id="bmb84InzkfZ7Il1cUTI2-54" value="+ longitude: Numérique" style="text;strokeColor=none;fillColor=none;align=left;verticalAlign=top;spacingLeft=4;spacingRight=4;overflow=hidden;rotatable=0;points=[[0,0.5],[1,0.5]];portConstraint=eastwest;whiteSpace=wrap;html=1;" vertex="1" parent="bmb84InzkfZ7Il1cUTI2-50">
          <mxGeometry y="78" width="190" height="26" as="geometry" />
        </mxCell>
        <mxCell id="bmb84InzkfZ7Il1cUTI2-55" value="+ latitude: Numérique" style="text;strokeColor=none;fillColor=none;align=left;verticalAlign=top;spacingLeft=4;spacingRight=4;overflow=hidden;rotatable=0;points=[[0,0.5],[1,0.5]];portConstraint=eastwest;whiteSpace=wrap;html=1;" vertex="1" parent="bmb84InzkfZ7Il1cUTI2-50">
          <mxGeometry y="104" width="190" height="26" as="geometry" />
        </mxCell>
        <mxCell id="bmb84InzkfZ7Il1cUTI2-56" value="" style="line;strokeWidth=1;fillColor=none;align=left;verticalAlign=middle;spacingTop=-1;spacingLeft=3;spacingRight=3;rotatable=0;labelPosition=right;points=[];portConstraint=eastwest;strokeColor=inherit;" vertex="1" parent="bmb84InzkfZ7Il1cUTI2-50">
          <mxGeometry y="130" width="190" height="8" as="geometry" />
        </mxCell>
        <mxCell id="bmb84InzkfZ7Il1cUTI2-58" value="&lt;i&gt;Oeuvre&lt;/i&gt;" style="swimlane;fontStyle=0;childLayout=stackLayout;horizontal=1;startSize=26;fillColor=none;horizontalStack=0;resizeParent=1;resizeParentMax=0;resizeLast=0;collapsible=1;marginBottom=0;whiteSpace=wrap;html=1;" vertex="1" parent="1">
          <mxGeometry x="520" y="520" width="190" height="60" as="geometry" />
        </mxCell>
        <mxCell id="bmb84InzkfZ7Il1cUTI2-59" value="+ titre: Texte" style="text;strokeColor=none;fillColor=none;align=left;verticalAlign=top;spacingLeft=4;spacingRight=4;overflow=hidden;rotatable=0;points=[[0,0.5],[1,0.5]];portConstraint=eastwest;whiteSpace=wrap;html=1;" vertex="1" parent="bmb84InzkfZ7Il1cUTI2-58">
          <mxGeometry y="26" width="190" height="26" as="geometry" />
        </mxCell>
        <mxCell id="bmb84InzkfZ7Il1cUTI2-63" value="" style="line;strokeWidth=1;fillColor=none;align=left;verticalAlign=middle;spacingTop=-1;spacingLeft=3;spacingRight=3;rotatable=0;labelPosition=right;points=[];portConstraint=eastwest;strokeColor=inherit;" vertex="1" parent="bmb84InzkfZ7Il1cUTI2-58">
          <mxGeometry y="52" width="190" height="8" as="geometry" />
        </mxCell>
        <mxCell id="bmb84InzkfZ7Il1cUTI2-64" style="edgeStyle=orthogonalEdgeStyle;rounded=0;orthogonalLoop=1;jettySize=auto;html=1;exitX=1;exitY=0.5;exitDx=0;exitDy=0;entryX=0;entryY=0.5;entryDx=0;entryDy=0;endArrow=none;endFill=0;" edge="1" parent="1" source="bmb84InzkfZ7Il1cUTI2-51" target="bmb84InzkfZ7Il1cUTI2-59">
          <mxGeometry relative="1" as="geometry">
            <Array as="points">
              <mxPoint x="390" y="559" />
            </Array>
          </mxGeometry>
        </mxCell>
        <mxCell id="bmb84InzkfZ7Il1cUTI2-74" style="rounded=0;orthogonalLoop=1;jettySize=auto;html=1;dashed=1;endArrow=none;endFill=0;" edge="1" parent="1" source="bmb84InzkfZ7Il1cUTI2-65">
          <mxGeometry relative="1" as="geometry">
            <mxPoint x="460" y="560" as="targetPoint" />
          </mxGeometry>
        </mxCell>
        <mxCell id="bmb84InzkfZ7Il1cUTI2-65" value="&lt;b&gt;Tournage&lt;/b&gt;" style="swimlane;fontStyle=0;childLayout=stackLayout;horizontal=1;startSize=26;fillColor=none;horizontalStack=0;resizeParent=1;resizeParentMax=0;resizeLast=0;collapsible=1;marginBottom=0;whiteSpace=wrap;html=1;" vertex="1" parent="1">
          <mxGeometry x="190" y="680" width="270" height="106" as="geometry">
            <mxRectangle x="190" y="680" width="90" height="30" as="alternateBounds" />
          </mxGeometry>
        </mxCell>
        <mxCell id="bmb84InzkfZ7Il1cUTI2-66" value="+ dateDeDebut: Date" style="text;strokeColor=none;fillColor=none;align=left;verticalAlign=top;spacingLeft=4;spacingRight=4;overflow=hidden;rotatable=0;points=[[0,0.5],[1,0.5]];portConstraint=eastwest;whiteSpace=wrap;html=1;" vertex="1" parent="bmb84InzkfZ7Il1cUTI2-65">
          <mxGeometry y="26" width="270" height="26" as="geometry" />
        </mxCell>
        <mxCell id="bmb84InzkfZ7Il1cUTI2-71" value="+ dateDeFin: Date" style="text;strokeColor=none;fillColor=none;align=left;verticalAlign=top;spacingLeft=4;spacingRight=4;overflow=hidden;rotatable=0;points=[[0,0.5],[1,0.5]];portConstraint=eastwest;whiteSpace=wrap;html=1;" vertex="1" parent="bmb84InzkfZ7Il1cUTI2-65">
          <mxGeometry y="52" width="270" height="26" as="geometry" />
        </mxCell>
        <mxCell id="bmb84InzkfZ7Il1cUTI2-70" value="" style="line;strokeWidth=1;fillColor=none;align=left;verticalAlign=middle;spacingTop=-1;spacingLeft=3;spacingRight=3;rotatable=0;labelPosition=right;points=[];portConstraint=eastwest;strokeColor=inherit;" vertex="1" parent="bmb84InzkfZ7Il1cUTI2-65">
          <mxGeometry y="78" width="270" height="2" as="geometry" />
        </mxCell>
        <mxCell id="bmb84InzkfZ7Il1cUTI2-73" value="+ determinerAneeDeTournage() : Numérique" style="text;strokeColor=none;fillColor=none;align=left;verticalAlign=top;spacingLeft=4;spacingRight=4;overflow=hidden;rotatable=0;points=[[0,0.5],[1,0.5]];portConstraint=eastwest;whiteSpace=wrap;html=1;" vertex="1" parent="bmb84InzkfZ7Il1cUTI2-65">
          <mxGeometry y="80" width="270" height="26" as="geometry" />
        </mxCell>
        <mxCell id="bmb84InzkfZ7Il1cUTI2-75" value="&lt;b&gt;SocieteDeProduction&lt;/b&gt;" style="swimlane;fontStyle=0;childLayout=stackLayout;horizontal=1;startSize=26;fillColor=none;horizontalStack=0;resizeParent=1;resizeParentMax=0;resizeLast=0;collapsible=1;marginBottom=0;whiteSpace=wrap;html=1;" vertex="1" parent="1">
          <mxGeometry x="840" y="440" width="190" height="60" as="geometry" />
        </mxCell>
        <mxCell id="bmb84InzkfZ7Il1cUTI2-76" value="+ nom: Texte" style="text;strokeColor=none;fillColor=none;align=left;verticalAlign=top;spacingLeft=4;spacingRight=4;overflow=hidden;rotatable=0;points=[[0,0.5],[1,0.5]];portConstraint=eastwest;whiteSpace=wrap;html=1;" vertex="1" parent="bmb84InzkfZ7Il1cUTI2-75">
          <mxGeometry y="26" width="190" height="26" as="geometry" />
        </mxCell>
        <mxCell id="bmb84InzkfZ7Il1cUTI2-77" value="" style="line;strokeWidth=1;fillColor=none;align=left;verticalAlign=middle;spacingTop=-1;spacingLeft=3;spacingRight=3;rotatable=0;labelPosition=right;points=[];portConstraint=eastwest;strokeColor=inherit;" vertex="1" parent="bmb84InzkfZ7Il1cUTI2-75">
          <mxGeometry y="52" width="190" height="8" as="geometry" />
        </mxCell>
        <mxCell id="bmb84InzkfZ7Il1cUTI2-78" style="rounded=0;orthogonalLoop=1;jettySize=auto;html=1;entryX=-0.005;entryY=0.154;entryDx=0;entryDy=0;entryPerimeter=0;endArrow=diamondThin;endFill=1;exitX=1;exitY=0.25;exitDx=0;exitDy=0;endSize=30;" edge="1" parent="1" source="bmb84InzkfZ7Il1cUTI2-58" target="bmb84InzkfZ7Il1cUTI2-76">
          <mxGeometry relative="1" as="geometry" />
        </mxCell>
        <mxCell id="bmb84InzkfZ7Il1cUTI2-79" value="Produit" style="text;html=1;align=center;verticalAlign=middle;resizable=0;points=[];autosize=1;strokeColor=none;fillColor=none;" vertex="1" parent="1">
          <mxGeometry x="730" y="470" width="60" height="30" as="geometry" />
        </mxCell>
        <mxCell id="bmb84InzkfZ7Il1cUTI2-81" value="*" style="text;html=1;align=center;verticalAlign=middle;resizable=0;points=[];autosize=1;strokeColor=none;fillColor=none;strokeWidth=1;perimeterSpacing=0;fontSize=20;" vertex="1" parent="1">
          <mxGeometry x="710" y="500" width="30" height="40" as="geometry" />
        </mxCell>
        <mxCell id="bmb84InzkfZ7Il1cUTI2-82" value="1" style="text;html=1;align=center;verticalAlign=middle;resizable=0;points=[];autosize=1;strokeColor=none;fillColor=none;fontSize=16;" vertex="1" parent="1">
          <mxGeometry x="810" y="490" width="30" height="30" as="geometry" />
        </mxCell>
        <mxCell id="bmb84InzkfZ7Il1cUTI2-83" value="&lt;b&gt;Realisateur_ice&lt;/b&gt;" style="swimlane;fontStyle=0;childLayout=stackLayout;horizontal=1;startSize=26;fillColor=none;horizontalStack=0;resizeParent=1;resizeParentMax=0;resizeLast=0;collapsible=1;marginBottom=0;whiteSpace=wrap;html=1;" vertex="1" parent="1">
          <mxGeometry x="840" y="740" width="190" height="90" as="geometry" />
        </mxCell>
        <mxCell id="bmb84InzkfZ7Il1cUTI2-84" value="+ nom: Texte" style="text;strokeColor=none;fillColor=none;align=left;verticalAlign=top;spacingLeft=4;spacingRight=4;overflow=hidden;rotatable=0;points=[[0,0.5],[1,0.5]];portConstraint=eastwest;whiteSpace=wrap;html=1;" vertex="1" parent="bmb84InzkfZ7Il1cUTI2-83">
          <mxGeometry y="26" width="190" height="26" as="geometry" />
        </mxCell>
        <mxCell id="bmb84InzkfZ7Il1cUTI2-85" value="" style="line;strokeWidth=1;fillColor=none;align=left;verticalAlign=middle;spacingTop=-1;spacingLeft=3;spacingRight=3;rotatable=0;labelPosition=right;points=[];portConstraint=eastwest;strokeColor=inherit;" vertex="1" parent="bmb84InzkfZ7Il1cUTI2-83">
          <mxGeometry y="52" width="190" height="38" as="geometry" />
        </mxCell>
        <mxCell id="bmb84InzkfZ7Il1cUTI2-86" style="rounded=0;orthogonalLoop=1;jettySize=auto;html=1;entryX=1.011;entryY=0.269;entryDx=0;entryDy=0;entryPerimeter=0;endArrow=none;endFill=0;" edge="1" parent="1" source="bmb84InzkfZ7Il1cUTI2-83" target="bmb84InzkfZ7Il1cUTI2-59">
          <mxGeometry relative="1" as="geometry" />
        </mxCell>
        <mxCell id="bmb84InzkfZ7Il1cUTI2-87" value="&lt;font style=&quot;font-size: 17px;&quot;&gt;1..*&lt;/font&gt;" style="text;html=1;align=center;verticalAlign=middle;resizable=0;points=[];autosize=1;strokeColor=none;fillColor=none;" vertex="1" parent="1">
          <mxGeometry x="890" y="710" width="50" height="30" as="geometry" />
        </mxCell>
        <mxCell id="bmb84InzkfZ7Il1cUTI2-89" value="*" style="text;html=1;align=center;verticalAlign=middle;resizable=0;points=[];autosize=1;strokeColor=none;fillColor=none;strokeWidth=1;perimeterSpacing=0;fontSize=20;" vertex="1" parent="1">
          <mxGeometry x="710" y="570" width="30" height="40" as="geometry" />
        </mxCell>
        <mxCell id="bmb84InzkfZ7Il1cUTI2-90" value="*" style="text;html=1;align=center;verticalAlign=middle;resizable=0;points=[];autosize=1;strokeColor=none;fillColor=none;strokeWidth=1;perimeterSpacing=0;fontSize=20;" vertex="1" parent="1">
          <mxGeometry x="490" y="520" width="30" height="40" as="geometry" />
        </mxCell>
        <mxCell id="bmb84InzkfZ7Il1cUTI2-91" value="*" style="text;html=1;align=center;verticalAlign=middle;resizable=0;points=[];autosize=1;strokeColor=none;fillColor=none;strokeWidth=1;perimeterSpacing=0;fontSize=20;" vertex="1" parent="1">
          <mxGeometry x="390" y="520" width="30" height="40" as="geometry" />
        </mxCell>
        <mxCell id="bmb84InzkfZ7Il1cUTI2-92" value="Telefilm" style="swimlane;fontStyle=0;childLayout=stackLayout;horizontal=1;startSize=26;fillColor=none;horizontalStack=0;resizeParent=1;resizeParentMax=0;resizeLast=0;collapsible=1;marginBottom=0;whiteSpace=wrap;html=1;" vertex="1" parent="1">
          <mxGeometry x="520" y="680" width="50" height="34" as="geometry" />
        </mxCell>
        <mxCell id="bmb84InzkfZ7Il1cUTI2-94" value="" style="line;strokeWidth=1;fillColor=none;align=left;verticalAlign=middle;spacingTop=-1;spacingLeft=3;spacingRight=3;rotatable=0;labelPosition=right;points=[];portConstraint=eastwest;strokeColor=inherit;" vertex="1" parent="bmb84InzkfZ7Il1cUTI2-92">
          <mxGeometry y="26" width="50" height="8" as="geometry" />
        </mxCell>
        <mxCell id="bmb84InzkfZ7Il1cUTI2-101" value="LongMetrage" style="swimlane;fontStyle=0;childLayout=stackLayout;horizontal=1;startSize=26;fillColor=none;horizontalStack=0;resizeParent=1;resizeParentMax=0;resizeLast=0;collapsible=1;marginBottom=0;whiteSpace=wrap;html=1;" vertex="1" parent="1">
          <mxGeometry x="580" y="680" width="80" height="34" as="geometry" />
        </mxCell>
        <mxCell id="bmb84InzkfZ7Il1cUTI2-102" value="" style="line;strokeWidth=1;fillColor=none;align=left;verticalAlign=middle;spacingTop=-1;spacingLeft=3;spacingRight=3;rotatable=0;labelPosition=right;points=[];portConstraint=eastwest;strokeColor=inherit;" vertex="1" parent="bmb84InzkfZ7Il1cUTI2-101">
          <mxGeometry y="26" width="80" height="8" as="geometry" />
        </mxCell>
        <mxCell id="bmb84InzkfZ7Il1cUTI2-103" value="&lt;i&gt;Serie&lt;/i&gt;" style="swimlane;fontStyle=0;childLayout=stackLayout;horizontal=1;startSize=26;fillColor=none;horizontalStack=0;resizeParent=1;resizeParentMax=0;resizeLast=0;collapsible=1;marginBottom=0;whiteSpace=wrap;html=1;" vertex="1" parent="1">
          <mxGeometry x="660" y="760" width="150" height="66" as="geometry">
            <mxRectangle x="660" y="760" width="70" height="30" as="alternateBounds" />
          </mxGeometry>
        </mxCell>
        <mxCell id="bmb84InzkfZ7Il1cUTI2-106" value="+ saison: Numérique" style="text;strokeColor=none;fillColor=none;align=left;verticalAlign=top;spacingLeft=4;spacingRight=4;overflow=hidden;rotatable=0;points=[[0,0.5],[1,0.5]];portConstraint=eastwest;whiteSpace=wrap;html=1;" vertex="1" parent="bmb84InzkfZ7Il1cUTI2-103">
          <mxGeometry y="26" width="150" height="26" as="geometry" />
        </mxCell>
        <mxCell id="bmb84InzkfZ7Il1cUTI2-104" value="" style="line;strokeWidth=1;fillColor=none;align=left;verticalAlign=middle;spacingTop=-1;spacingLeft=3;spacingRight=3;rotatable=0;labelPosition=right;points=[];portConstraint=eastwest;strokeColor=inherit;" vertex="1" parent="bmb84InzkfZ7Il1cUTI2-103">
          <mxGeometry y="52" width="150" height="14" as="geometry" />
        </mxCell>
        <mxCell id="bmb84InzkfZ7Il1cUTI2-110" value="" style="endArrow=block;endSize=16;endFill=0;html=1;rounded=0;exitX=0.195;exitY=-0.002;exitDx=0;exitDy=0;exitPerimeter=0;" edge="1" parent="1" source="bmb84InzkfZ7Il1cUTI2-103">
          <mxGeometry width="160" relative="1" as="geometry">
            <mxPoint x="690" y="730" as="sourcePoint" />
            <mxPoint x="690" y="580" as="targetPoint" />
          </mxGeometry>
        </mxCell>
        <mxCell id="bmb84InzkfZ7Il1cUTI2-111" value="" style="endArrow=block;endSize=16;endFill=0;html=1;rounded=0;exitX=0.5;exitY=0;exitDx=0;exitDy=0;" edge="1" parent="1" source="bmb84InzkfZ7Il1cUTI2-92">
          <mxGeometry width="160" relative="1" as="geometry">
            <mxPoint x="728" y="860" as="sourcePoint" />
            <mxPoint x="545" y="580" as="targetPoint" />
          </mxGeometry>
        </mxCell>
        <mxCell id="bmb84InzkfZ7Il1cUTI2-112" value="" style="endArrow=block;endSize=16;endFill=0;html=1;rounded=0;exitX=0.5;exitY=0;exitDx=0;exitDy=0;entryX=0.526;entryY=1;entryDx=0;entryDy=0;entryPerimeter=0;" edge="1" parent="1" source="bmb84InzkfZ7Il1cUTI2-101" target="bmb84InzkfZ7Il1cUTI2-63">
          <mxGeometry width="160" relative="1" as="geometry">
            <mxPoint x="598" y="800" as="sourcePoint" />
            <mxPoint x="590" y="620" as="targetPoint" />
          </mxGeometry>
        </mxCell>
        <mxCell id="bmb84InzkfZ7Il1cUTI2-116" value="SerieTV" style="swimlane;fontStyle=0;childLayout=stackLayout;horizontal=1;startSize=28;fillColor=none;horizontalStack=0;resizeParent=1;resizeParentMax=0;resizeLast=0;collapsible=1;marginBottom=0;whiteSpace=wrap;html=1;" vertex="1" collapsed="1" parent="1">
          <mxGeometry x="480" y="812" width="90" height="38" as="geometry">
            <mxRectangle x="480" y="812" width="70" height="36" as="alternateBounds" />
          </mxGeometry>
        </mxCell>
        <mxCell id="bmb84InzkfZ7Il1cUTI2-130" value="" style="line;strokeWidth=1;fillColor=none;align=left;verticalAlign=middle;spacingTop=-1;spacingLeft=3;spacingRight=3;rotatable=0;labelPosition=right;points=[];portConstraint=eastwest;strokeColor=inherit;" vertex="1" parent="bmb84InzkfZ7Il1cUTI2-116">
          <mxGeometry y="28" width="70" height="8" as="geometry" />
        </mxCell>
        <mxCell id="bmb84InzkfZ7Il1cUTI2-133" value="" style="endArrow=block;endSize=16;endFill=0;html=1;rounded=0;exitX=1;exitY=0.5;exitDx=0;exitDy=0;entryX=0;entryY=0.5;entryDx=0;entryDy=0;edgeStyle=orthogonalEdgeStyle;" edge="1" parent="1" target="bmb84InzkfZ7Il1cUTI2-106">
          <mxGeometry width="160" relative="1" as="geometry">
            <mxPoint x="570" y="767" as="sourcePoint" />
            <mxPoint x="710" y="690" as="targetPoint" />
            <Array as="points">
              <mxPoint x="600" y="769" />
              <mxPoint x="600" y="799" />
            </Array>
          </mxGeometry>
        </mxCell>
        <mxCell id="bmb84InzkfZ7Il1cUTI2-134" value="" style="endArrow=block;endSize=16;endFill=0;html=1;rounded=0;exitX=1;exitY=0.5;exitDx=0;exitDy=0;edgeStyle=orthogonalEdgeStyle;" edge="1" parent="1" source="bmb84InzkfZ7Il1cUTI2-116">
          <mxGeometry width="160" relative="1" as="geometry">
            <mxPoint x="610" y="850" as="sourcePoint" />
            <mxPoint x="660" y="800" as="targetPoint" />
            <Array as="points">
              <mxPoint x="600" y="830" />
              <mxPoint x="600" y="800" />
            </Array>
          </mxGeometry>
        </mxCell>
        <mxCell id="bmb84InzkfZ7Il1cUTI2-135" value="SerieWeb" style="swimlane;fontStyle=0;childLayout=stackLayout;horizontal=1;startSize=28;fillColor=none;horizontalStack=0;resizeParent=1;resizeParentMax=0;resizeLast=0;collapsible=1;marginBottom=0;whiteSpace=wrap;html=1;" vertex="1" collapsed="1" parent="1">
          <mxGeometry x="480" y="751" width="90" height="38" as="geometry">
            <mxRectangle x="480" y="812" width="70" height="36" as="alternateBounds" />
          </mxGeometry>
        </mxCell>
        <mxCell id="bmb84InzkfZ7Il1cUTI2-136" value="" style="line;strokeWidth=1;fillColor=none;align=left;verticalAlign=middle;spacingTop=-1;spacingLeft=3;spacingRight=3;rotatable=0;labelPosition=right;points=[];portConstraint=eastwest;strokeColor=inherit;" vertex="1" parent="bmb84InzkfZ7Il1cUTI2-135">
          <mxGeometry y="28" width="70" height="8" as="geometry" />
        </mxCell>
      </root>
    </mxGraphModel>
  </diagram>
</mxfile>
